<svg width="847" height="183" viewBox="0 0 847 183" fill="none" xmlns="http://www.w3.org/2000/svg">
  <path d="M840.364 76.0022L831.974 67.5722V54.2722C831.974 48.2651 829.588 42.5039 825.34 38.2562C821.092 34.0085 815.331 31.6222 809.324 31.6222H795.974L786.974 22.6222C782.729 18.3818 776.974 16 770.974 16C764.974 16 759.219 18.3818 754.974 22.6222L745.974 31.6222H733.844C730.869 31.6209 727.924 32.2055 725.175 33.3425C722.427 34.4796 719.929 36.1469 717.825 38.2492C715.721 40.3515 714.051 42.8477 712.912 45.5952C711.772 48.3427 711.185 51.2878 711.184 54.2622V66.4122L701.614 76.0022C697.378 80.2499 695 86.0037 695 92.0022C695 98.0007 697.378 103.755 701.614 108.002L711.184 117.572V129.702C711.187 135.711 713.575 141.473 717.824 145.722C722.073 149.971 727.835 152.36 733.844 152.362H745.974L754.974 161.362C759.222 165.598 764.975 167.976 770.974 167.976C776.972 167.976 782.726 165.598 786.974 161.362L795.974 152.362H809.264C815.273 152.373 821.04 149.997 825.299 145.758C829.557 141.518 831.958 135.761 831.974 129.752V116.432L840.384 108.022C844.625 103.772 847.006 98.0123 847.002 92.0081C846.998 86.0038 844.611 80.2468 840.364 76.0022Z" fill="#4F8EF9" />
  <path d="M810.044 61.9651C807.846 59.9472 804.937 58.8844 801.956 59.01C798.974 59.1356 796.165 60.4394 794.144 62.6351L761.544 98.1451L749.214 85.8151C747.102 83.7071 744.239 82.5233 741.254 82.5233C738.27 82.5233 735.407 83.7071 733.294 85.8151C731.187 87.9262 730.003 90.7872 730.003 93.7701C730.003 96.753 731.187 99.614 733.294 101.725L753.594 122.025C755.829 124.221 758.845 125.441 761.978 125.414C765.112 125.388 768.106 124.119 770.304 121.885L810.724 77.8851C811.725 76.7979 812.502 75.5242 813.011 74.1366C813.52 72.7491 813.75 71.2749 813.688 69.7984C813.627 68.3218 813.276 66.8718 812.654 65.5312C812.032 64.1905 811.152 62.9856 810.064 61.9851L810.044 61.9651Z" fill="white" />
  <path d="M28.426 65.07V82.394H56.364V98.498H28.426V117.286H60.024V134H7.564V48.356H60.024V65.07H28.426ZM69.4199 99.84C69.4199 92.8453 70.7212 86.7047 73.3239 81.418C76.0079 76.1313 79.6272 72.0647 84.1819 69.218C88.7366 66.3713 93.8199 64.948 99.4319 64.948C104.231 64.948 108.419 65.924 111.998 67.876C115.658 69.828 118.464 72.39 120.416 75.562V65.924H141.278V134H120.416V124.362C118.383 127.534 115.536 130.096 111.876 132.048C108.297 134 104.109 134.976 99.3099 134.976C93.7792 134.976 88.7366 133.553 84.1819 130.706C79.6272 127.778 76.0079 123.671 73.3239 118.384C70.7212 113.016 69.4199 106.835 69.4199 99.84ZM120.416 99.962C120.416 94.7567 118.952 90.6493 116.024 87.64C113.177 84.6307 109.68 83.126 105.532 83.126C101.384 83.126 97.8459 84.6307 94.9179 87.64C92.0712 90.568 90.6479 94.6347 90.6479 99.84C90.6479 105.045 92.0712 109.193 94.9179 112.284C97.8459 115.293 101.384 116.798 105.532 116.798C109.68 116.798 113.177 115.293 116.024 112.284C118.952 109.275 120.416 105.167 120.416 99.962ZM184.065 134.976C178.127 134.976 172.841 133.959 168.205 131.926C163.569 129.893 159.909 127.127 157.225 123.63C154.541 120.051 153.036 116.066 152.711 111.674H173.329C173.573 114.033 174.671 115.944 176.623 117.408C178.575 118.872 180.974 119.604 183.821 119.604C186.423 119.604 188.416 119.116 189.799 118.14C191.263 117.083 191.995 115.741 191.995 114.114C191.995 112.162 190.978 110.739 188.945 109.844C186.911 108.868 183.617 107.811 179.063 106.672C174.183 105.533 170.116 104.354 166.863 103.134C163.609 101.833 160.803 99.84 158.445 97.156C156.086 94.3907 154.907 90.69 154.907 86.054C154.907 82.15 155.964 78.612 158.079 75.44C160.275 72.1867 163.447 69.6247 167.595 67.754C171.824 65.8833 176.826 64.948 182.601 64.948C191.141 64.948 197.851 67.0627 202.731 71.292C207.692 75.5213 210.539 81.1333 211.271 88.128H191.995C191.669 85.7693 190.612 83.8987 188.823 82.516C187.115 81.1333 184.837 80.442 181.991 80.442C179.551 80.442 177.68 80.93 176.379 81.906C175.077 82.8007 174.427 84.0613 174.427 85.688C174.427 87.64 175.443 89.104 177.477 90.08C179.591 91.056 182.845 92.032 187.237 93.008C192.279 94.3093 196.387 95.6107 199.559 96.912C202.731 98.132 205.496 100.165 207.855 103.012C210.295 105.777 211.555 109.519 211.637 114.236C211.637 118.221 210.498 121.8 208.221 124.972C206.025 128.063 202.812 130.503 198.583 132.292C194.435 134.081 189.595 134.976 184.065 134.976ZM293.94 65.924L251.24 166.33H228.792L244.408 131.682L216.714 65.924H240.016L255.754 108.502L271.37 65.924H293.94ZM381.882 48.356L351.504 134H325.396L295.018 48.356H317.222L338.45 113.016L359.8 48.356H381.882ZM454.773 98.864C454.773 100.816 454.651 102.849 454.407 104.964H407.193C407.518 109.193 408.86 112.447 411.219 114.724C413.659 116.92 416.628 118.018 420.125 118.018C425.33 118.018 428.95 115.822 430.983 111.43H453.187C452.048 115.903 449.974 119.929 446.965 123.508C444.037 127.087 440.336 129.893 435.863 131.926C431.39 133.959 426.388 134.976 420.857 134.976C414.188 134.976 408.25 133.553 403.045 130.706C397.84 127.859 393.773 123.793 390.845 118.506C387.917 113.219 386.453 107.038 386.453 99.962C386.453 92.886 387.876 86.7047 390.723 81.418C393.651 76.1313 397.718 72.0647 402.923 69.218C408.128 66.3713 414.106 64.948 420.857 64.948C427.445 64.948 433.301 66.3307 438.425 69.096C443.549 71.8613 447.534 75.806 450.381 80.93C453.309 86.054 454.773 92.032 454.773 98.864ZM433.423 93.374C433.423 89.7953 432.203 86.9487 429.763 84.834C427.323 82.7193 424.273 81.662 420.613 81.662C417.116 81.662 414.147 82.6787 411.707 84.712C409.348 86.7453 407.884 89.6327 407.315 93.374H433.423ZM486.641 77.27C489.081 73.5287 492.131 70.6007 495.791 68.486C499.451 66.29 503.518 65.192 507.991 65.192V87.274H502.257C497.052 87.274 493.148 88.4127 490.545 90.69C487.942 92.886 486.641 96.79 486.641 102.402V134H465.779V65.924H486.641V77.27ZM528.454 58.848C524.794 58.848 521.785 57.7907 519.426 55.676C517.149 53.48 516.01 50.796 516.01 47.624C516.01 44.3707 517.149 41.6867 519.426 39.572C521.785 37.376 524.794 36.278 528.454 36.278C532.033 36.278 534.961 37.376 537.238 39.572C539.597 41.6867 540.776 44.3707 540.776 47.624C540.776 50.796 539.597 53.48 537.238 55.676C534.961 57.7907 532.033 58.848 528.454 58.848ZM538.824 65.924V134H517.962V65.924H538.824ZM588.103 83.248H576.879V134H556.017V83.248H548.453V65.924H556.017V63.972C556.017 55.5947 558.416 49.2507 563.215 44.94C568.014 40.548 575.049 38.352 584.321 38.352C585.866 38.352 587.005 38.3927 587.737 38.474V56.164C583.752 55.92 580.946 56.4893 579.319 57.872C577.692 59.2547 576.879 61.7353 576.879 65.314V65.924H588.103V83.248ZM667.446 65.924L624.746 166.33H602.298L617.914 131.682L590.22 65.924H613.522L629.26 108.502L644.876 65.924H667.446Z" fill="black" />
</svg>